<svg xmlns="http://www.w3.org/2000/svg" width="16" height="16">
    <defs>
        <clipPath id="clip-path">
            <path id="Rectangle_181" data-name="Rectangle 181" style="fill:none" d="M0 0h16v16H0z"/>
        </clipPath>
        <style>
            .cls-3,.cls-4{fill:none;stroke:#0071bc;stroke-linecap:round}.cls-3{stroke-linejoin:round}
        </style>
    </defs>
    <g id="icon_16_-_attach" data-name="icon 16 - attach" style="clip-path:url(#clip-path)">
        <g id="attach" transform="translate(207 9)">
            <path id="Path_552" data-name="Path 552" class="cls-3" d="M4 3v1a1 1 0 0 0 2 0V1a1 1 0 0 0-2 0v.125" transform="translate(-206.063 -8)"/>
            <path id="Path_553" data-name="Path 553" class="cls-3" d="M4 1h-.937a1 1 0 0 0-1 1v11a1 1 0 0 0 1 1H11a1 1 0 0 0 1-1V2a1 1 0 0 0-1-1H6" transform="translate(-206.063 -8)"/>
            <path id="Line_272" data-name="Line 272" class="cls-4" transform="translate(-201)" d="M0 0h4"/>
            <path id="Line_273" data-name="Line 273" class="cls-4" transform="translate(-201 3)" d="M0 0h4"/>
        </g>
    </g>
</svg>
